<svg xmlns="http://www.w3.org/2000/svg" viewBox="0 0 400 400" width="20mm" height="20mm">
  <path d="M320.00 200.00L319.88 204.86L319.51 209.69L318.90 214.46L318.05 219.13L316.98 223.67L315.69 228.05L314.20 232.26L312.51 236.26L310.65 240.04L308.63 243.58L306.47 246.87L304.18 249.90L301.78 252.66L299.28 255.15L296.70 257.36L294.06 259.30L291.37 260.97L288.65 262.38L285.90 263.53L283.14 264.43L280.37 265.09L277.62 265.52L274.87 265.73L272.15 265.74L269.46 265.54L266.80 265.16L264.18 264.61L261.60 263.89L259.06 263.01L256.57 262.00L254.12 260.85L251.73 259.58L249.38 258.20L247.08 256.71L244.83 255.13L242.63 253.46L240.48 251.71L238.37 249.88L236.31 247.98L234.29 246.02L232.31 244.01L230.37 241.94L228.47 239.83L226.60 237.67L224.78 235.48L222.98 233.25L221.21 230.99L219.47 228.70L217.76 226.39L216.07 224.06L214.40 221.70L212.75 219.33L211.12 216.95L209.50 214.55L207.90 212.14L206.31 209.72L204.72 207.30L203.14 204.87L201.57 202.43L200.00 200.00L198.43 197.57L196.86 195.13L195.28 192.70L193.69 190.28L192.10 187.86L190.50 185.45L188.88 183.05L187.25 180.67L185.60 178.30L183.93 175.94L182.24 173.61L180.53 171.30L178.79 169.01L177.02 166.75L175.22 164.52L173.40 162.33L171.53 160.17L169.63 158.06L167.69 155.99L165.71 153.98L163.69 152.02L161.63 150.12L159.52 148.29L157.37 146.54L155.17 144.87L152.92 143.29L150.62 141.80L148.27 140.42L145.88 139.15L143.43 138.00L140.94 136.99L138.40 136.11L135.82 135.39L133.20 134.84L130.54 134.46L127.85 134.26L125.13 134.27L122.38 134.48L119.63 134.91L116.86 135.57L114.10 136.47L111.35 137.62L108.63 139.03L105.94 140.70L103.30 142.64L100.72 144.85L98.22 147.34L95.82 150.10L93.53 153.13L91.37 156.42L89.35 159.96L87.49 163.74L85.80 167.74L84.31 171.95L83.02 176.33L81.95 180.87L81.10 185.54L80.49 190.31L80.12 195.14L80.00 200.00L80.12 204.86L80.49 209.69L81.10 214.46L81.95 219.13L83.02 223.67L84.31 228.05L85.80 232.26L87.49 236.26L89.35 240.04L91.37 243.58L93.53 246.87L95.82 249.90L98.22 252.66L100.72 255.15L103.30 257.36L105.94 259.30L108.63 260.97L111.35 262.38L114.10 263.53L116.86 264.43L119.63 265.09L122.38 265.52L125.13 265.73L127.85 265.74L130.54 265.54L133.20 265.16L135.82 264.61L138.40 263.89L140.94 263.01L143.43 262.00L145.88 260.85L148.27 259.58L150.62 258.20L152.92 256.71L155.17 255.13L157.37 253.46L159.52 251.71L161.63 249.88L163.69 247.98L165.71 246.02L167.69 244.01L169.63 241.94L171.53 239.83L173.40 237.67L175.22 235.48L177.02 233.25L178.79 230.99L180.53 228.70L182.24 226.39L183.93 224.06L185.60 221.70L187.25 219.33L188.88 216.95L190.50 214.55L192.10 212.14L193.69 209.72L195.28 207.30L196.86 204.87L198.43 202.43L200.00 200.00L201.57 197.57L203.14 195.13L204.72 192.70L206.31 190.28L207.90 187.86L209.50 185.45L211.12 183.05L212.75 180.67L214.40 178.30L216.07 175.94L217.76 173.61L219.47 171.30L221.21 169.01L222.98 166.75L224.78 164.52L226.60 162.33L228.47 160.17L230.37 158.06L232.31 155.99L234.29 153.98L236.31 152.02L238.37 150.12L240.48 148.29L242.63 146.54L244.83 144.87L247.08 143.29L249.38 141.80L251.73 140.42L254.12 139.15L256.57 138.00L259.06 136.99L261.60 136.11L264.18 135.39L266.80 134.84L269.46 134.46L272.15 134.26L274.87 134.27L277.62 134.48L280.37 134.91L283.14 135.57L285.90 136.47L288.65 137.62L291.37 139.03L294.06 140.70L296.70 142.64L299.28 144.85L301.78 147.34L304.18 150.10L306.47 153.13L308.63 156.42L310.65 159.96L312.51 163.74L314.20 167.74L315.69 171.95L316.98 176.33L318.05 180.87L318.90 185.54L319.51 190.31L319.88 195.14L320.00 200.00" fill="none" stroke="#E3BE55" stroke-width="8" stroke-linecap="round"></path>
  <path d="M346.00 200.00L345.85 205.92L345.40 211.80L344.66 217.59L343.63 223.27L342.33 228.79L340.76 234.13L338.94 239.25L336.89 244.12L334.63 248.71L332.17 253.02L329.54 257.03L326.75 260.71L323.83 264.07L320.79 267.10L317.66 269.79L314.44 272.15L311.17 274.18L307.86 275.90L304.51 277.30L301.15 278.39L297.79 279.20L294.43 279.72L291.10 279.98L287.79 279.98L284.51 279.74L281.27 279.28L278.08 278.60L274.94 277.73L271.86 276.67L268.83 275.43L265.85 274.04L262.94 272.49L260.08 270.81L257.28 269.00L254.55 267.08L251.87 265.04L249.25 262.91L246.68 260.68L244.17 258.38L241.71 255.99L239.31 253.54L236.95 251.03L234.64 248.46L232.37 245.83L230.14 243.17L227.96 240.45L225.81 237.70L223.69 234.92L221.60 232.11L219.55 229.27L217.52 226.40L215.51 223.52L213.53 220.62L211.56 217.70L209.61 214.77L207.67 211.83L205.75 208.88L203.83 205.92L201.91 202.96L200.00 200.00L198.09 197.04L196.17 194.08L194.25 191.12L192.33 188.17L190.39 185.23L188.44 182.30L186.47 179.38L184.49 176.48L182.48 173.60L180.45 170.73L178.40 167.89L176.31 165.08L174.19 162.30L172.04 159.55L169.86 156.83L167.63 154.17L165.36 151.54L163.05 148.97L160.69 146.46L158.29 144.01L155.83 141.62L153.32 139.32L150.75 137.09L148.13 134.96L145.45 132.92L142.72 131.00L139.92 129.19L137.06 127.51L134.15 125.96L131.17 124.57L128.14 123.33L125.06 122.27L121.92 121.40L118.73 120.72L115.49 120.26L112.21 120.02L108.90 120.02L105.57 120.28L102.21 120.80L98.85 121.61L95.49 122.70L92.14 124.10L88.83 125.82L85.56 127.85L82.34 130.21L79.21 132.90L76.17 135.93L73.25 139.29L70.46 142.97L67.83 146.98L65.37 151.29L63.11 155.88L61.06 160.75L59.24 165.87L57.67 171.21L56.37 176.73L55.34 182.41L54.60 188.20L54.15 194.08L54.00 200.00L54.15 205.92L54.60 211.80L55.34 217.59L56.37 223.27L57.67 228.79L59.24 234.13L61.06 239.25L63.11 244.12L65.37 248.71L67.83 253.02L70.46 257.03L73.25 260.71L76.17 264.07L79.21 267.10L82.34 269.79L85.56 272.15L88.83 274.18L92.14 275.90L95.49 277.30L98.85 278.39L102.21 279.20L105.57 279.72L108.90 279.98L112.21 279.98L115.49 279.74L118.73 279.28L121.92 278.60L125.06 277.73L128.14 276.67L131.17 275.43L134.15 274.04L137.06 272.49L139.92 270.81L142.72 269.00L145.45 267.08L148.13 265.04L150.75 262.91L153.32 260.68L155.83 258.38L158.29 255.99L160.69 253.54L163.05 251.03L165.36 248.46L167.63 245.83L169.86 243.17L172.04 240.45L174.19 237.70L176.31 234.92L178.40 232.11L180.45 229.27L182.48 226.40L184.49 223.52L186.47 220.62L188.44 217.70L190.39 214.77L192.33 211.83L194.25 208.88L196.17 205.92L198.09 202.96L200.00 200.00L201.91 197.04L203.83 194.08L205.75 191.12L207.67 188.17L209.61 185.23L211.56 182.30L213.53 179.38L215.51 176.48L217.52 173.60L219.55 170.73L221.60 167.89L223.69 165.08L225.81 162.30L227.96 159.55L230.14 156.83L232.37 154.17L234.64 151.54L236.95 148.97L239.31 146.46L241.71 144.01L244.17 141.62L246.68 139.32L249.25 137.09L251.87 134.96L254.55 132.92L257.28 131.00L260.08 129.19L262.94 127.51L265.85 125.96L268.83 124.57L271.86 123.33L274.94 122.27L278.08 121.40L281.27 120.72L284.51 120.26L287.79 120.02L291.10 120.02L294.43 120.28L297.79 120.80L301.15 121.61L304.51 122.70L307.86 124.10L311.17 125.82L314.44 127.85L317.66 130.21L320.79 132.90L323.83 135.93L326.75 139.29L329.54 142.97L332.17 146.98L334.63 151.29L336.89 155.88L338.94 160.75L340.76 165.87L342.33 171.21L343.63 176.73L344.66 182.41L345.40 188.20L345.85 194.08L346.00 200.00" fill="none" stroke="#E3BE55" stroke-width="8" stroke-linecap="round"></path>
  <path d="M372.00 200.00L371.82 206.97L371.30 213.90L370.42 220.73L369.21 227.42L367.67 233.92L365.82 240.21L363.68 246.23L361.27 251.97L358.60 257.39L355.71 262.47L352.61 267.18L349.32 271.52L345.88 275.48L342.30 279.04L338.61 282.22L334.83 285.00L330.97 287.40L327.06 289.41L323.12 291.06L319.17 292.35L315.20 293.30L311.25 293.92L307.32 294.22L303.42 294.22L299.56 293.94L295.75 293.40L291.99 292.60L288.29 291.57L284.65 290.32L281.08 288.87L277.58 287.22L274.14 285.40L270.78 283.42L267.49 281.29L264.26 279.02L261.11 276.62L258.02 274.11L255.00 271.49L252.04 268.77L249.14 265.97L246.31 263.08L243.53 260.12L240.81 257.09L238.13 254.00L235.51 250.85L232.93 247.66L230.40 244.42L227.91 241.14L225.45 237.83L223.03 234.48L220.64 231.11L218.28 227.71L215.94 224.29L213.62 220.85L211.32 217.40L209.04 213.93L206.77 210.46L204.51 206.98L202.25 203.49L200.00 200.00L197.75 196.51L195.49 193.02L193.23 189.54L190.96 186.07L188.68 182.60L186.38 179.15L184.06 175.71L181.72 172.29L179.36 168.89L176.97 165.52L174.55 162.17L172.09 158.86L169.60 155.58L167.07 152.34L164.49 149.15L161.87 146.00L159.19 142.91L156.47 139.88L153.69 136.92L150.86 134.03L147.96 131.23L145.00 128.51L141.98 125.89L138.89 123.38L135.74 120.98L132.51 118.71L129.22 116.58L125.86 114.60L122.42 112.78L118.92 111.13L115.35 109.68L111.71 108.43L108.01 107.40L104.25 106.60L100.44 106.06L96.58 105.78L92.68 105.78L88.75 106.08L84.80 106.70L80.83 107.65L76.88 108.94L72.94 110.59L69.03 112.60L65.17 115.00L61.39 117.78L57.70 120.96L54.12 124.52L50.68 128.48L47.39 132.82L44.29 137.53L41.40 142.61L38.73 148.03L36.32 153.77L34.18 159.79L32.33 166.08L30.79 172.58L29.58 179.27L28.70 186.10L28.18 193.03L28.00 200.00L28.18 206.97L28.70 213.90L29.58 220.73L30.79 227.42L32.33 233.92L34.18 240.21L36.32 246.23L38.73 251.97L41.40 257.39L44.29 262.47L47.39 267.18L50.68 271.52L54.12 275.48L57.70 279.04L61.39 282.22L65.17 285.00L69.03 287.40L72.94 289.41L76.88 291.06L80.83 292.35L84.80 293.30L88.75 293.92L92.68 294.22L96.58 294.22L100.44 293.94L104.25 293.40L108.01 292.60L111.71 291.57L115.35 290.32L118.92 288.87L122.42 287.22L125.86 285.40L129.22 283.42L132.51 281.29L135.74 279.02L138.89 276.62L141.98 274.11L145.00 271.49L147.96 268.77L150.86 265.97L153.69 263.08L156.47 260.12L159.19 257.09L161.87 254.00L164.49 250.85L167.07 247.66L169.60 244.42L172.09 241.14L174.55 237.83L176.97 234.48L179.36 231.11L181.72 227.71L184.06 224.29L186.38 220.85L188.68 217.40L190.96 213.93L193.23 210.46L195.49 206.98L197.75 203.49L200.00 200.00L202.25 196.51L204.51 193.02L206.77 189.54L209.04 186.07L211.32 182.60L213.62 179.15L215.94 175.71L218.28 172.29L220.64 168.89L223.03 165.52L225.45 162.17L227.91 158.86L230.40 155.58L232.93 152.34L235.51 149.15L238.13 146.00L240.81 142.91L243.53 139.88L246.31 136.92L249.14 134.03L252.04 131.23L255.00 128.51L258.02 125.89L261.11 123.38L264.26 120.98L267.49 118.71L270.78 116.58L274.14 114.60L277.58 112.78L281.08 111.13L284.65 109.68L288.29 108.43L291.99 107.40L295.75 106.60L299.56 106.06L303.42 105.78L307.32 105.78L311.25 106.08L315.20 106.70L319.17 107.65L323.12 108.94L327.06 110.59L330.97 112.60L334.83 115.00L338.61 117.78L342.30 120.96L345.88 124.52L349.32 128.48L352.61 132.82L355.71 137.53L358.60 142.61L361.27 148.03L363.68 153.77L365.82 159.79L367.67 166.08L369.21 172.58L370.42 179.27L371.30 186.10L371.82 193.03L372.00 200.00" fill="none" stroke="#E3BE55" stroke-width="8" stroke-linecap="round"></path>
</svg>